<svg preserveAspectRatio="none" width="100%" height="100%" overflow="visible" style="display: block;" viewBox="0 0 20 20" fill="none" xmlns="http://www.w3.org/2000/svg">
<g id="scroll">
<path id="Vector" d="M9.16667 5.00651H14.1667" stroke="var(--stroke-0, white)" stroke-width="1.25" stroke-linecap="round" stroke-linejoin="round"/>
<path id="Vector_2" d="M9.16667 8.33333H14.1667" stroke="var(--stroke-0, white)" stroke-width="1.25" stroke-linecap="round" stroke-linejoin="round"/>
<path id="Vector_3" d="M9.16667 11.6667H11.6667" stroke="var(--stroke-0, white)" stroke-width="1.25" stroke-linecap="round" stroke-linejoin="round"/>
<path id="Vector_4" d="M15.8333 18.3333C16.7538 18.3333 17.5 17.5872 17.5 16.6667V6.66667C17.5 4.30964 17.5 3.13113 16.7677 2.3989C16.0355 1.66667 14.857 1.66667 12.5 1.66667H10.8333C8.47633 1.66667 7.2978 1.66667 6.56557 2.3989C5.83333 3.13113 5.83333 4.30964 5.83333 6.66667V15M15.8333 18.3333C14.9128 18.3333 14.1667 17.5872 14.1667 16.6667C14.1667 15.881 14.1667 15.4882 13.9226 15.2441C13.6785 15 13.2857 15 12.5 15H5.83333M15.8333 18.3333H4.16667C3.24619 18.3333 2.5 17.5872 2.5 16.6667C2.5 15.881 2.5 15.4882 2.74408 15.2441C2.98816 15 3.38099 15 4.16667 15H5.83333" stroke="var(--stroke-0, white)" stroke-width="1.25" stroke-linecap="round" stroke-linejoin="round"/>
</g>
</svg>
