<svg preserveAspectRatio="none" width="100%" height="100%" overflow="visible" style="display: block;" viewBox="0 0 24 24" fill="none" xmlns="http://www.w3.org/2000/svg">
<g id="Discord_original">
<path id="Discord-Symbol-Blurple" d="M15.3785 3C15.144 3.42058 14.9334 3.85566 14.742 4.30041C12.9232 4.02487 11.0709 4.02487 9.24729 4.30041C9.06062 3.85566 8.84523 3.42058 8.61072 3C6.902 3.2949 5.23636 3.81216 3.65689 4.54212C0.526643 9.22652 -0.320532 13.79 0.100668 18.2907C1.93381 19.6588 3.98715 20.703 6.17448 21.3702C6.66747 20.703 7.10303 19.9924 7.47636 19.2528C6.76798 18.9869 6.08354 18.6533 5.42782 18.2666C5.60012 18.1409 5.76765 18.0104 5.93038 17.8847C9.77378 19.712 14.225 19.712 18.0732 17.8847C18.236 18.02 18.4035 18.1506 18.5758 18.2666C17.9201 18.6581 17.2356 18.9869 16.5225 19.2576C16.8958 19.9972 17.3313 20.7079 17.8243 21.375C20.0116 20.7079 22.0649 19.6685 23.8982 18.3004C24.3959 13.0794 23.0462 8.55455 20.3323 4.54696C18.7577 3.817 17.092 3.29972 15.3833 3.00967L15.3785 3ZM8.01242 15.5207C6.83022 15.5207 5.84902 14.4378 5.84902 13.0988C5.84902 11.7597 6.79192 10.672 8.00765 10.672C9.22337 10.672 10.1902 11.7645 10.171 13.0988C10.1519 14.433 9.21858 15.5207 8.01242 15.5207ZM15.9864 15.5207C14.7994 15.5207 13.8278 14.4378 13.8278 13.0988C13.8278 11.7597 14.7707 10.672 15.9864 10.672C17.2021 10.672 18.1642 11.7645 18.145 13.0988C18.1259 14.433 17.1925 15.5207 15.9864 15.5207Z" fill="var(--fill-0, white)"/>
</g>
</svg>
