<svg preserveAspectRatio="none" width="100%" height="100%" overflow="visible" style="display: block;" viewBox="0 0 44 44" fill="none" xmlns="http://www.w3.org/2000/svg">
<g id="Discord_original">
<path id="Discord-Symbol-Blurple" d="M28.194 5.5C27.764 6.27106 27.3779 7.06871 27.0269 7.88409C23.6925 7.37892 20.2966 7.37892 16.9534 7.88409C16.6111 7.06871 16.2163 6.27106 15.7863 5.5C12.6537 6.04065 9.6 6.98895 6.7043 8.32722C0.965513 16.9153 -0.587641 25.2818 0.184558 33.533C3.54532 36.0412 7.30977 37.9556 11.3199 39.1786C12.2237 37.9556 13.0222 36.6527 13.7067 35.2967C12.408 34.8093 11.1532 34.1978 9.95101 33.4887C10.2669 33.2583 10.574 33.019 10.8724 32.7886C17.9186 36.1387 26.0793 36.1387 33.1343 32.7886C33.4326 33.0367 33.7397 33.276 34.0556 33.4887C32.8535 34.2066 31.5986 34.8093 30.2912 35.3056C30.9756 36.6616 31.7741 37.9644 32.678 39.1875C36.688 37.9644 40.4524 36.0589 43.8134 33.5508C44.7258 23.9789 42.2514 15.6833 37.2758 8.3361C34.3891 6.99783 31.3354 6.04949 28.2028 5.51772L28.194 5.5ZM14.6894 28.4547C12.5221 28.4547 10.7232 26.4694 10.7232 24.0144C10.7232 21.5594 12.4518 19.5653 14.6807 19.5653C16.9095 19.5653 18.682 21.5683 18.6469 24.0144C18.6118 26.4605 16.9007 28.4547 14.6894 28.4547ZM29.3084 28.4547C27.1322 28.4547 25.3509 26.4694 25.3509 24.0144C25.3509 21.5594 27.0796 19.5653 29.3084 19.5653C31.5373 19.5653 33.301 21.5683 33.2659 24.0144C33.2308 26.4605 31.5197 28.4547 29.3084 28.4547Z" fill="var(--fill-0, white)"/>
</g>
</svg>
