<svg preserveAspectRatio="none" width="100%" height="100%" overflow="visible" style="display: block;" viewBox="0 0 20 20" fill="none" xmlns="http://www.w3.org/2000/svg">
<g id="configuration-01">
<path id="Vector" d="M1.88004 13.0268C1.90834 12.7575 2.10352 12.5404 2.49388 12.1063L3.3531 11.1457C3.56313 10.8798 3.71217 10.4167 3.71217 9.99983C3.71217 9.58333 3.56308 9.12 3.35308 8.85417L2.49388 7.89359C2.10352 7.45947 1.90833 7.24242 1.88004 6.97307C1.85174 6.70372 1.99754 6.45069 2.28913 5.94465L2.70045 5.23082C3.01153 4.69096 3.16707 4.42103 3.43172 4.31339C3.69637 4.20575 3.99567 4.29069 4.59428 4.46056L5.61114 4.74697C5.99332 4.8351 6.39428 4.78511 6.74323 4.60582L7.02397 4.44384C7.3232 4.25218 7.55337 3.9696 7.68077 3.63744L7.95907 2.80628C8.14204 2.25627 8.23353 1.98127 8.45132 1.82397C8.66915 1.66667 8.95848 1.66667 9.53707 1.66667H10.4661C11.0447 1.66667 11.3341 1.66667 11.5518 1.82397C11.7697 1.98127 11.8612 2.25627 12.0442 2.80628L12.3224 3.63744C12.4498 3.9696 12.68 4.25218 12.9792 4.44384L13.26 4.60582C13.6089 4.78511 14.0099 4.8351 14.3921 4.74697L15.4089 4.46056C16.0075 4.29069 16.3068 4.20575 16.5715 4.31339C16.8362 4.42103 16.9917 4.69096 17.3027 5.23082L17.7141 5.94465C18.0057 6.45069 18.1514 6.70372 18.1232 6.97307C18.0948 7.24242 17.8997 7.45947 17.5093 7.89359L16.6501 8.85417C16.4402 9.12 16.291 9.58333 16.291 9.99983C16.291 10.4167 16.4401 10.8798 16.6501 11.1457L17.5093 12.1063C17.8997 12.5404 18.0948 12.7575 18.1232 13.0268C18.1514 13.2962 18.0057 13.5493 17.7141 14.0553L17.3027 14.7691C16.9917 15.3089 16.8362 15.5789 16.5715 15.6865C16.3068 15.7942 16.0075 15.7092 15.4089 15.5393L14.3921 15.2529C14.0098 15.1647 13.6088 15.2148 13.2598 15.3942L12.9792 15.5562C12.6799 15.7478 12.4498 16.0303 12.3225 16.3625L12.0442 17.1937C11.8612 17.7437 11.7697 18.0187 11.5518 18.176C11.3341 18.3333 11.0447 18.3333 10.4661 18.3333H9.53707C8.95848 18.3333 8.66915 18.3333 8.45132 18.176C8.23353 18.0187 8.14204 17.7437 7.95907 17.1937" stroke="var(--stroke-0, white)" stroke-width="1.25" stroke-linecap="round"/>
<path id="Vector_2" d="M2.2808 15.6498C3.1808 14.7498 6.2408 11.7198 6.5408 11.3698C6.85794 10.9998 6.6008 10.4998 6.7538 8.94983C6.82783 8.19983 6.98916 7.63796 7.4508 7.21983C8.0008 6.69983 8.45083 6.69983 10.0008 6.66484C11.3508 6.69983 11.5108 6.54983 11.6508 6.89984C11.7508 7.14984 11.4508 7.29983 11.0908 7.69984C10.2908 8.49983 9.82083 8.89983 9.77583 9.14983C9.45083 10.2498 10.7308 10.8998 11.4308 10.1998C11.6955 9.93509 12.9208 8.69983 13.0408 8.59983C13.1308 8.51983 13.3462 8.52367 13.4508 8.64983C13.5408 8.73825 13.5508 8.74983 13.5408 9.14983C13.5316 9.52008 13.5357 10.0517 13.5368 10.5998C13.5382 11.3101 13.5008 12.0998 13.2008 12.4998C12.6008 13.3998 11.6008 13.4498 10.7008 13.4898C9.85083 13.5398 9.15083 13.4498 8.93083 13.6098C8.75083 13.6998 7.8008 14.6998 6.6508 15.8498L4.6008 17.8998C2.9008 19.2498 1.0308 17.1498 2.2808 15.6498Z" stroke="var(--stroke-0, white)" stroke-width="1.25" stroke-linecap="round"/>
</g>
</svg>
