<svg preserveAspectRatio="none" width="100%" height="100%" overflow="visible" style="display: block;" viewBox="0 0 20 20" fill="none" xmlns="http://www.w3.org/2000/svg">
<g id="task-01">
<path id="Vector" d="M12.0801 1.6669H7.91341C7.22306 1.6669 6.66341 2.22655 6.66341 2.9169C6.66341 3.60725 7.22306 4.1669 7.91341 4.1669H12.0801C12.7704 4.1669 13.3301 3.60725 13.3301 2.9169C13.3301 2.22655 12.7704 1.6669 12.0801 1.6669Z" stroke="var(--stroke-0, white)" stroke-width="1.25" stroke-linecap="round" stroke-linejoin="round"/>
<path id="Vector_2" d="M6.66341 12.5003H9.52059M6.66341 9.16692H13.3301" stroke="var(--stroke-0, white)" stroke-width="1.25" stroke-linecap="round" stroke-linejoin="round"/>
<path id="Vector_3" d="M13.3301 2.9169C14.6247 2.95591 15.3968 3.1003 15.9312 3.6347C16.6634 4.36694 16.6634 5.54543 16.6634 7.90242V13.3331C16.6634 15.6902 16.6634 16.8687 15.9312 17.6009C15.1989 18.3331 14.0204 18.3331 11.6634 18.3331H8.33008C5.97306 18.3331 4.79455 18.3331 4.06232 17.6009C3.33009 16.8687 3.33009 15.6902 3.33008 13.3332L3.33009 7.90247C3.33009 5.54545 3.33009 4.36693 4.06232 3.6347C4.59672 3.10029 5.36884 2.9559 6.66333 2.9169" stroke="var(--stroke-0, white)" stroke-width="1.25" stroke-linecap="round" stroke-linejoin="round"/>
</g>
</svg>
