<svg preserveAspectRatio="none" width="100%" height="100%" overflow="visible" style="display: block;" viewBox="0 0 20 20" fill="none" xmlns="http://www.w3.org/2000/svg">
<g id="google-sheet">
<path id="Vector" d="M12.5 2.08333V3.33333C12.5 4.51184 12.5 5.1011 12.8661 5.46722C13.2322 5.83333 13.8215 5.83333 15 5.83333H16.25" stroke="var(--stroke-0, white)" stroke-width="1.25" stroke-linecap="round" stroke-linejoin="round"/>
<path id="Vector_2" d="M3.33333 13.3333V6.66667C3.33333 4.30964 3.33333 3.13113 4.06557 2.3989C4.7978 1.66667 5.97631 1.66667 8.33333 1.66667H11.8097C12.1502 1.66667 12.3206 1.66667 12.4737 1.7301C12.6268 1.79353 12.7473 1.91397 12.9882 2.15482L16.1785 5.34517C16.4193 5.58603 16.5398 5.70647 16.6033 5.85961C16.6667 6.01275 16.6667 6.18307 16.6667 6.52369V13.3333C16.6667 15.6903 16.6667 16.8688 15.9344 17.6011C15.2022 18.3333 14.0237 18.3333 11.6667 18.3333H8.33333C5.97631 18.3333 4.7978 18.3333 4.06557 17.6011C3.33333 16.8688 3.33333 15.6903 3.33333 13.3333Z" stroke="var(--stroke-0, white)" stroke-width="1.25" stroke-linecap="round" stroke-linejoin="round"/>
<path id="Vector_3" d="M10 9.16667V11.6667M10 11.6667V14.1667M10 11.6667H6.25M10 11.6667H13.75M7.91667 14.1667H12.0833C12.869 14.1667 13.2618 14.1667 13.5059 13.9226C13.75 13.6785 13.75 13.2857 13.75 12.5V10.8333C13.75 10.0477 13.75 9.65483 13.5059 9.41075C13.2618 9.16667 12.869 9.16667 12.0833 9.16667H7.91667C7.13099 9.16667 6.73816 9.16667 6.49408 9.41075C6.25 9.65483 6.25 10.0477 6.25 10.8333V12.5C6.25 13.2857 6.25 13.6785 6.49408 13.9226C6.73816 14.1667 7.13099 14.1667 7.91667 14.1667Z" stroke="var(--stroke-0, white)" stroke-width="1.25" stroke-linecap="round" stroke-linejoin="round"/>
</g>
</svg>
