<svg preserveAspectRatio="none" width="100%" height="100%" overflow="visible" style="display: block;" viewBox="0 0 20 20" fill="none" xmlns="http://www.w3.org/2000/svg">
<g id="settings-01">
<path id="Vector" d="M17.7646 5.95116L17.3532 5.23733C17.0422 4.69747 16.8867 4.42754 16.622 4.3199C16.3573 4.21227 16.058 4.2972 15.4594 4.46707L14.4426 4.75348C14.0604 4.84162 13.6594 4.79162 13.3105 4.61233L13.0297 4.45035C12.7305 4.25869 12.5003 3.97611 12.3729 3.64395L12.0947 2.8128C11.9117 2.26278 11.8202 1.98778 11.6023 1.83048C11.3846 1.67318 11.0952 1.67318 10.5166 1.67318H9.58758C9.009 1.67318 8.71967 1.67318 8.50183 1.83048C8.28404 1.98778 8.19255 2.26278 8.00957 2.8128L7.73127 3.64395C7.60387 3.97611 7.37371 4.25869 7.07447 4.45035L6.79374 4.61233C6.44478 4.79162 6.04382 4.84162 5.66165 4.75348L4.64479 4.46707C4.04617 4.2972 3.74687 4.21227 3.48222 4.3199C3.21757 4.42754 3.06204 4.69747 2.75096 5.23733L2.33964 5.95116C2.04805 6.4572 1.90225 6.71023 1.93055 6.97958C1.95884 7.24893 2.15402 7.46598 2.54438 7.9001L3.40358 8.86067C3.61358 9.1265 3.76267 9.58983 3.76267 10.0064C3.76267 10.4232 3.61363 10.8863 3.40361 11.1522L2.54438 12.1128C2.15402 12.547 1.95885 12.764 1.93055 13.0334C1.90225 13.3028 2.04805 13.5557 2.33964 14.0617L2.75095 14.7756C3.06202 15.3154 3.21757 15.5854 3.48222 15.693C3.74687 15.8007 4.04618 15.7158 4.64481 15.5458L5.66162 15.2594C6.04386 15.1712 6.44489 15.2213 6.79389 15.4007L7.07458 15.5627C7.37376 15.7543 7.60387 16.0368 7.73125 16.369L8.00957 17.2003C8.19255 17.7503 8.28404 18.0252 8.50183 18.1826C8.71967 18.3398 9.009 18.3398 9.58758 18.3398H10.5166C11.0952 18.3398 11.3846 18.3398 11.6023 18.1826C11.8202 18.0252 11.9117 17.7503 12.0947 17.2003L12.373 16.369C12.5003 16.0368 12.7304 15.7543 13.0297 15.5627L13.3103 15.4007C13.6593 15.2213 14.0603 15.1712 14.4426 15.2594L15.4594 15.5458C16.058 15.7158 16.3573 15.8007 16.622 15.693C16.8867 15.5854 17.0422 15.3154 17.3532 14.7756L17.7646 14.0617C18.0562 13.5557 18.2019 13.3028 18.1737 13.0334C18.1453 12.764 17.9502 12.547 17.5598 12.1128L16.7006 11.1522C16.4906 10.8863 16.3415 10.4232 16.3415 10.0064C16.3415 9.58983 16.4907 9.1265 16.7006 8.86067L17.5598 7.9001C17.9502 7.46598 18.1453 7.24893 18.1737 6.97958C18.2019 6.71023 18.0562 6.4572 17.7646 5.95116Z" stroke="var(--stroke-0, white)" stroke-width="1.25" stroke-linecap="round"/>
<path id="Vector_2" d="M12.9329 10C12.9329 11.6108 11.6271 12.9167 10.0163 12.9167C8.40542 12.9167 7.09961 11.6108 7.09961 10C7.09961 8.38917 8.40542 7.08333 10.0163 7.08333C11.6271 7.08333 12.9329 8.38917 12.9329 10Z" stroke="var(--stroke-0, white)" stroke-width="1.25"/>
</g>
</svg>
