<svg preserveAspectRatio="none" width="100%" height="100%" overflow="visible" style="display: block;" viewBox="0 0 178.92 27.9998" fill="none" xmlns="http://www.w3.org/2000/svg">
<path id="Union" d="M7.53027 1.58984C9.16519 -0.122129 11.8227 -0.106691 13.4395 1.62402L19.5811 8.2002C20.3449 9.01811 20.7704 10.1185 20.7637 11.2617L20.7295 17.0029C20.7227 18.1303 20.2967 19.2106 19.542 20.0156L13.2773 26.6973C11.6492 28.434 8.97491 28.4339 7.34668 26.6973L1.1875 20.1279C0.426469 19.3161 0 18.2247 0 17.0879V11.2734C8.30928e-05 10.123 0.436547 9.01923 1.21387 8.20508L7.53027 1.58984ZM53.6289 6.16992C58.8708 6.17028 63.1201 10.6327 63.1201 16.1367C63.1197 21.6404 58.8705 26.1022 53.6289 26.1025C48.3871 26.1024 44.1371 21.6405 44.1367 16.1367C44.1367 10.6325 48.3869 6.17008 53.6289 6.16992ZM74.9854 6.16992C80.2272 6.17028 84.4766 10.6327 84.4766 16.1367C84.4761 21.6404 80.227 26.1022 74.9854 26.1025C69.7436 26.1024 65.4936 21.6405 65.4932 16.1367C65.4932 10.6326 69.7433 6.17011 74.9854 6.16992ZM93.9688 7.11914H100.139V10.916H93.9688V19.2207C93.9688 20.5654 94.6809 23.4921 100.139 20.8818L101.088 24.6787C100.139 25.1533 97.7655 26.1025 95.8672 26.1025C93.9687 26.1025 88.748 26.1021 88.748 19.2207V10.916H85.9014V7.11914H89.2227V2.84766L93.9688 1.42383V7.11914ZM140.616 6.64355C146.759 6.64365 148.775 10.3499 149.016 12.2031H144.456C144.456 11.5081 143.687 10.1182 140.616 10.1182C137.545 10.1183 136.937 11.5081 137.017 12.2031C137.017 12.7436 137.881 13.8252 141.337 13.8252C147.864 13.8254 149.496 17.7625 149.496 20.3105C149.496 22.8586 146.952 26.1025 140.616 26.1025C134.281 26.1024 132.537 21.7782 132.457 19.6162H136.537C136.617 20.3884 137.545 21.9325 140.616 21.9326C143.688 21.9326 144.456 20.851 144.456 20.3105C144.536 19.6927 143.879 18.4581 140.616 18.458C133.321 18.4579 132.137 14.2879 132.457 12.2031C132.617 10.3499 134.473 6.64371 140.616 6.64355ZM158.987 7.11914H165.632V10.916H158.987V19.2207C158.987 20.5654 160.316 22.7802 165.632 20.8818L166.581 24.6787C165.632 25.1533 163.259 26.1025 161.36 26.1025C158.987 26.1024 154.242 24.441 154.242 19.2207V10.916H151.395V7.11914H154.717V2.84766L158.987 1.42383V7.11914ZM33.6963 21.3564H42.7129V25.6279H28.9502V2.84766L33.6963 1.42383V21.3564ZM110.105 21.3564H119.122V25.6279H105.359V2.84766L110.105 1.42383V21.3564ZM128.14 25.627H123.394V7.11816H128.14V25.627ZM53.6289 10.4414C50.7458 10.4416 48.4082 12.9915 48.4082 16.1367C48.4086 19.2815 50.7461 21.8309 53.6289 21.8311C56.5116 21.8307 58.8482 19.2814 58.8486 16.1367C58.8486 12.9916 56.5118 10.4417 53.6289 10.4414ZM74.9854 10.4414C72.1023 10.4416 69.7646 12.9915 69.7646 16.1367C69.7651 19.2815 72.1026 21.8309 74.9854 21.8311C77.868 21.8307 80.2047 19.2814 80.2051 16.1367C80.2051 12.9916 77.8683 10.4418 74.9854 10.4414ZM174.649 13.7627H178.92V17.5596H174.649V21.8311H170.875V17.5596H166.581V13.7627H170.875V9.49219H174.649V13.7627ZM12.0293 5.72266C12.029 4.13729 10.1938 3.3462 9.125 4.4707L3.69043 10.1885C2.91711 11.0021 2.48247 12.1029 2.48242 13.25V17.3857C2.48242 18.6329 3.70544 19.4706 4.79883 18.9727C5.40257 18.6975 5.79297 18.0744 5.79297 17.3857V14.7695C5.79297 13.6162 6.23206 12.51 7.0127 11.6953L11.5303 6.98047C11.8497 6.64715 12.0293 6.19452 12.0293 5.72266ZM125.767 0C127.339 0.000244414 128.614 1.27516 128.614 2.84766C128.614 4.4201 127.339 5.69507 125.767 5.69531C124.194 5.69531 122.919 4.42025 122.919 2.84766C122.919 1.27501 124.194 0 125.767 0Z" fill="var(--fill-0, white)"/>
</svg>
