<svg preserveAspectRatio="none" width="100%" height="100%" overflow="visible" style="display: block;" viewBox="0 0 33 44" fill="none" xmlns="http://www.w3.org/2000/svg">
<path id="Subtract" fill-rule="evenodd" clip-rule="evenodd" d="M1.92951 12.5393C0.69396 13.8333 0 15.5873 0 17.4159V26.6567C0 28.4637 0.677617 30.1986 1.88733 31.4888L11.6766 41.9299C14.2644 44.6901 18.5152 44.69 21.1029 41.9298L31.059 31.3102C32.2588 30.0304 32.9355 28.3129 32.9461 26.5208L32.9999 17.3962C33.0106 15.5792 32.3357 13.8311 31.1216 12.5312L21.3607 2.07965C18.7909 -0.671866 14.5663 -0.696229 11.9677 2.02548L1.92951 12.5393ZM19.1188 8.59384C19.1188 9.3438 18.8335 10.063 18.3259 10.5927L11.1457 18.0859C9.90496 19.3807 9.20771 21.1384 9.20771 22.9714V27.1301C9.20771 28.2247 8.58728 29.2151 7.62772 29.6524C5.88982 30.4443 3.94559 29.1125 3.94559 27.1301V20.5571C3.94559 18.7339 4.63548 16.9846 5.86462 15.6915L14.5029 6.60307C16.2018 4.81572 19.1188 6.0738 19.1188 8.59384Z" fill="var(--fill-0, white)"/>
</svg>
